# MagicaVoxel @ Ephtracy

# group
o 

# material
mtllib snk_Head.mtl
usemtl palette

# normals
vn 1 0 0
vn -1 0 0
vn 0 0 -1
vn 0 0 1
vn 0 -1 0
vn 0 1 0

# texcoords
vt 0.841797 0.5
vt 0.904297 0.5
vt 0.958984 0.5
vt 0.994141 0.5

# verts
v 0 0.6 0.5
v 0 0.6 0.7
v 0 0.8 0.5
v 0 0.8 0.6
v 0 0.9 0.6
v 0 0.9 0.7
v -0.1 0.6 0.2
v -0.1 0.6 0.5
v -0.1 0.8 0.2
v -0.1 0.8 0.5
v -0.1 0.8 0.6
v -0.1 0.9 0.5
v -0.1 0.9 0.6
v -0.1 0.9 0.7
v -0.1 1 0.5
v -0.1 1 0.6
v -0.1 1 0.7
v -0.2 0.5 0
v -0.2 0.5 0.1
v -0.2 0.5 0.3
v -0.2 0.5 0.8
v -0.2 0.6 0
v -0.2 0.6 0.1
v -0.2 0.6 0.2
v -0.2 0.6 0.3
v -0.2 0.6 0.7
v -0.2 0.8 0
v -0.2 0.8 0.2
v -0.2 0.9 0.7
v -0.2 0.9 0.8
v -0.3 0.4 0
v -0.3 0.4 0.1
v -0.3 0.4 0.3
v -0.3 0.4 0.7
v -0.3 0.5 0
v -0.3 0.5 0.1
v -0.3 0.5 0.2
v -0.3 0.5 0.3
v -0.3 0.5 0.7
v -0.3 0.6 0.2
v -0.3 0.6 0.3
v -0.3 0.8 0.1
v -0.3 0.8 0.5
v -0.3 0.9 0.1
v -0.3 0.9 0.5
v -0.5 0.9 0.5
v -0.5 0.9 0.6
v -0.5 0.9 0.7
v -0.5 1 0.5
v -0.5 1 0.6
v -0.5 1 0.7
v -0.3 0.9 0.5
v -0.3 0.9 0.6
v -0.3 0.9 0.7
v -0.3 1 0.5
v -0.3 1 0.6
v -0.3 1 0.7
v -0.5 0.4 0
v -0.5 0.4 0.1
v -0.5 0.4 0.3
v -0.5 0.4 0.7
v -0.5 0.5 0
v -0.5 0.5 0.1
v -0.5 0.5 0.2
v -0.5 0.5 0.3
v -0.5 0.5 0.7
v -0.5 0.6 0.2
v -0.5 0.6 0.3
v -0.5 0.8 0.1
v -0.5 0.8 0.5
v -0.5 0.9 0.1
v -0.5 0.9 0.5
v -0.6 0.5 0
v -0.6 0.5 0.1
v -0.6 0.5 0.3
v -0.6 0.5 0.8
v -0.6 0.6 0
v -0.6 0.6 0.1
v -0.6 0.6 0.2
v -0.6 0.6 0.3
v -0.6 0.6 0.7
v -0.6 0.8 0
v -0.6 0.8 0.2
v -0.6 0.9 0.7
v -0.6 0.9 0.8
v -0.7 0.6 0.2
v -0.7 0.6 0.5
v -0.7 0.8 0.2
v -0.7 0.8 0.5
v -0.7 0.8 0.6
v -0.7 0.9 0.6
v -0.7 0.9 0.7
v -0.7 1 0.5
v -0.7 1 0.6
v -0.7 1 0.7
v -0.8 0.6 0.5
v -0.8 0.6 0.7
v -0.8 0.8 0.5
v -0.8 0.8 0.6
v -0.8 0.9 0.6
v -0.8 0.9 0.7
v -0.2 0.5 0
v -0.2 0.6 0
v -0.2 0.8 0
v -0.3 0.4 0
v -0.3 0.5 0
v -0.3 0.6 0
v -0.5 0.4 0
v -0.5 0.5 0
v -0.5 0.6 0
v -0.6 0.5 0
v -0.6 0.6 0
v -0.6 0.8 0
v -0.3 0.8 0.1
v -0.3 0.9 0.1
v -0.5 0.8 0.1
v -0.5 0.9 0.1
v -0.1 0.6 0.2
v -0.1 0.8 0.2
v -0.2 0.6 0.2
v -0.2 0.8 0.2
v -0.3 0.5 0.2
v -0.3 0.6 0.2
v -0.5 0.5 0.2
v -0.5 0.6 0.2
v -0.6 0.6 0.2
v -0.6 0.8 0.2
v -0.7 0.6 0.2
v -0.7 0.8 0.2
v -0.2 0.5 0.3
v -0.2 0.6 0.3
v -0.3 0.4 0.3
v -0.3 0.5 0.3
v -0.3 0.6 0.3
v -0.5 0.4 0.3
v -0.5 0.5 0.3
v -0.5 0.6 0.3
v -0.6 0.5 0.3
v -0.6 0.6 0.3
v 0 0.6 0.5
v 0 0.8 0.5
v -0.1 0.6 0.5
v -0.1 0.8 0.5
v -0.1 0.9 0.5
v -0.1 1 0.5
v -0.2 0.9 0.5
v -0.2 1 0.5
v -0.3 0.8 0.5
v -0.3 0.9 0.5
v -0.3 1 0.5
v -0.5 0.8 0.5
v -0.5 0.9 0.5
v -0.5 1 0.5
v -0.6 0.9 0.5
v -0.6 1 0.5
v -0.7 0.6 0.5
v -0.7 0.8 0.5
v -0.7 1 0.5
v -0.8 0.6 0.5
v -0.8 0.8 0.5
v 0 0.8 0.6
v 0 0.9 0.6
v -0.1 0.8 0.6
v -0.1 0.9 0.6
v -0.7 0.8 0.6
v -0.7 0.9 0.6
v -0.8 0.8 0.6
v -0.8 0.9 0.6
v -0.2 0.5 0.1
v -0.2 0.6 0.1
v -0.3 0.4 0.1
v -0.3 0.5 0.1
v -0.3 0.6 0.1
v -0.5 0.4 0.1
v -0.5 0.5 0.1
v -0.5 0.6 0.1
v -0.6 0.5 0.1
v -0.6 0.6 0.1
v 0 0.6 0.7
v 0 0.9 0.7
v -0.1 0.9 0.7
v -0.1 1 0.7
v -0.2 0.6 0.7
v -0.2 0.9 0.7
v -0.3 0.4 0.7
v -0.3 0.5 0.7
v -0.3 0.9 0.7
v -0.3 1 0.7
v -0.5 0.4 0.7
v -0.5 0.5 0.7
v -0.5 0.9 0.7
v -0.5 1 0.7
v -0.6 0.6 0.7
v -0.6 0.9 0.7
v -0.7 0.9 0.7
v -0.7 1 0.7
v -0.8 0.6 0.7
v -0.8 0.9 0.7
v -0.2 0.5 0.8
v -0.2 0.9 0.8
v -0.6 0.5 0.8
v -0.6 0.9 0.8
v -0.3 0.4 0
v -0.5 0.4 0
v -0.3 0.4 0.1
v -0.5 0.4 0.1
v -0.3 0.4 0.3
v -0.5 0.4 0.3
v -0.3 0.4 0.7
v -0.5 0.4 0.7
v -0.2 0.5 0
v -0.3 0.5 0
v -0.5 0.5 0
v -0.6 0.5 0
v -0.2 0.5 0.1
v -0.3 0.5 0.1
v -0.5 0.5 0.1
v -0.6 0.5 0.1
v -0.3 0.5 0.2
v -0.5 0.5 0.2
v -0.2 0.5 0.3
v -0.3 0.5 0.3
v -0.5 0.5 0.3
v -0.6 0.5 0.3
v -0.3 0.5 0.7
v -0.5 0.5 0.7
v -0.2 0.5 0.8
v -0.6 0.5 0.8
v -0.2 0.6 0.1
v -0.3 0.6 0.1
v -0.5 0.6 0.1
v -0.6 0.6 0.1
v -0.1 0.6 0.2
v -0.2 0.6 0.2
v -0.3 0.6 0.2
v -0.5 0.6 0.2
v -0.6 0.6 0.2
v -0.7 0.6 0.2
v -0.2 0.6 0.3
v -0.3 0.6 0.3
v -0.5 0.6 0.3
v -0.6 0.6 0.3
v 0 0.6 0.5
v -0.1 0.6 0.5
v -0.7 0.6 0.5
v -0.8 0.6 0.5
v 0 0.6 0.7
v -0.2 0.6 0.7
v -0.6 0.6 0.7
v -0.8 0.6 0.7
v -0.2 0.8 0
v -0.6 0.8 0
v -0.3 0.8 0.1
v -0.5 0.8 0.1
v -0.1 0.8 0.2
v -0.2 0.8 0.2
v -0.6 0.8 0.2
v -0.7 0.8 0.2
v 0 0.8 0.5
v -0.1 0.8 0.5
v -0.3 0.8 0.5
v -0.5 0.8 0.5
v -0.7 0.8 0.5
v -0.8 0.8 0.5
v 0 0.8 0.6
v -0.1 0.8 0.6
v -0.7 0.8 0.6
v -0.8 0.8 0.6
v -0.3 0.9 0.1
v -0.5 0.9 0.1
v -0.3 0.9 0.5
v -0.5 0.9 0.5
v 0 0.9 0.6
v -0.1 0.9 0.6
v -0.3 0.9 0.6
v -0.5 0.9 0.6
v -0.7 0.9 0.6
v -0.8 0.9 0.6
v 0 0.9 0.7
v -0.1 0.9 0.7
v -0.2 0.9 0.7
v -0.3 0.9 0.7
v -0.5 0.9 0.7
v -0.6 0.9 0.7
v -0.7 0.9 0.7
v -0.8 0.9 0.7
v -0.2 0.9 0.8
v -0.6 0.9 0.8
v -0.1 1 0.5
v -0.2 1 0.5
v -0.3 1 0.5
v -0.5 1 0.5
v -0.6 1 0.5
v -0.7 1 0.5
v -0.1 1 0.6
v -0.2 1 0.6
v -0.3 1 0.6
v -0.5 1 0.6
v -0.6 1 0.6
v -0.7 1 0.6
v -0.1 1 0.7
v -0.3 1 0.7
v -0.5 1 0.7
v -0.7 1 0.7

# faces
f 3/2/1 2/2/1 1/2/1
f 4/2/1 2/2/1 3/2/1
f 5/2/1 2/2/1 4/2/1
f 6/2/1 2/2/1 5/2/1
f 9/2/1 8/2/1 7/2/1
f 10/2/1 8/2/1 9/2/1
f 12/4/1 11/4/1 10/4/1
f 13/4/1 11/4/1 12/4/1
f 15/3/1 13/3/1 12/3/1
f 16/2/1 14/2/1 13/2/1
f 16/3/1 13/3/1 15/3/1
f 17/2/1 14/2/1 16/2/1
f 22/3/1 19/3/1 18/3/1
f 23/3/1 19/3/1 22/3/1
f 25/2/1 21/2/1 20/2/1
f 26/2/1 21/2/1 25/2/1
f 27/2/1 24/2/1 23/2/1
f 27/2/1 23/2/1 22/2/1
f 28/2/1 24/2/1 27/2/1
f 29/2/1 21/2/1 26/2/1
f 30/2/1 21/2/1 29/2/1
f 35/1/1 32/1/1 31/1/1
f 36/1/1 32/1/1 35/1/1
f 38/2/1 34/2/1 33/2/1
f 39/2/1 34/2/1 38/2/1
f 40/2/1 38/2/1 37/2/1
f 41/2/1 38/2/1 40/2/1
f 44/2/1 43/2/1 42/2/1
f 45/2/1 43/2/1 44/2/1
f 49/3/1 47/3/1 46/3/1
f 50/2/1 48/2/1 47/2/1
f 50/3/1 47/3/1 49/3/1
f 51/2/1 48/2/1 50/2/1
f 52/4/2 53/4/2 55/4/2
f 53/2/2 54/2/2 56/2/2
f 55/4/2 53/4/2 56/4/2
f 56/2/2 54/2/2 57/2/2
f 58/1/2 59/1/2 62/1/2
f 62/1/2 59/1/2 63/1/2
f 60/2/2 61/2/2 65/2/2
f 65/2/2 61/2/2 66/2/2
f 64/2/2 65/2/2 67/2/2
f 67/2/2 65/2/2 68/2/2
f 69/2/2 70/2/2 71/2/2
f 71/2/2 70/2/2 72/2/2
f 73/3/2 74/3/2 77/3/2
f 77/3/2 74/3/2 78/3/2
f 75/2/2 76/2/2 80/2/2
f 80/2/2 76/2/2 81/2/2
f 78/2/2 79/2/2 82/2/2
f 77/2/2 78/2/2 82/2/2
f 82/2/2 79/2/2 83/2/2
f 81/2/2 76/2/2 84/2/2
f 84/2/2 76/2/2 85/2/2
f 86/2/2 87/2/2 88/2/2
f 88/2/2 87/2/2 89/2/2
f 89/4/2 90/4/2 91/4/2
f 89/4/2 91/4/2 93/4/2
f 91/2/2 92/2/2 94/2/2
f 93/4/2 91/4/2 94/4/2
f 94/2/2 92/2/2 95/2/2
f 96/2/2 97/2/2 98/2/2
f 98/2/2 97/2/2 99/2/2
f 99/2/2 97/2/2 100/2/2
f 100/2/2 97/2/2 101/2/2
f 106/3/3 103/3/3 102/3/3
f 107/2/3 104/2/3 103/2/3
f 107/3/3 103/3/3 106/3/3
f 108/1/3 106/1/3 105/1/3
f 108/1/3 107/1/3 106/1/3
f 109/1/3 107/1/3 108/1/3
f 110/2/3 104/2/3 107/2/3
f 110/1/3 107/1/3 109/1/3
f 111/3/3 110/3/3 109/3/3
f 112/2/3 104/2/3 110/2/3
f 112/3/3 110/3/3 111/3/3
f 113/2/3 104/2/3 112/2/3
f 116/2/3 115/2/3 114/2/3
f 117/2/3 115/2/3 116/2/3
f 120/2/3 119/2/3 118/2/3
f 121/2/3 119/2/3 120/2/3
f 124/2/3 123/2/3 122/2/3
f 125/2/3 123/2/3 124/2/3
f 128/2/3 127/2/3 126/2/3
f 129/2/3 127/2/3 128/2/3
f 133/2/3 131/2/3 130/2/3
f 134/2/3 131/2/3 133/2/3
f 135/2/3 133/2/3 132/2/3
f 136/2/3 133/2/3 135/2/3
f 138/2/3 137/2/3 136/2/3
f 139/2/3 137/2/3 138/2/3
f 142/2/3 141/2/3 140/2/3
f 143/2/3 141/2/3 142/2/3
f 146/3/3 145/3/3 144/3/3
f 146/4/3 144/4/3 143/4/3
f 147/3/3 145/3/3 146/3/3
f 148/4/3 146/4/3 143/4/3
f 148/4/3 147/4/3 146/4/3
f 149/4/3 147/4/3 148/4/3
f 150/4/3 147/4/3 149/4/3
f 154/4/3 152/4/3 151/4/3
f 154/3/3 153/3/3 152/3/3
f 155/3/3 153/3/3 154/3/3
f 157/4/3 154/4/3 151/4/3
f 157/4/3 155/4/3 154/4/3
f 158/4/3 155/4/3 157/4/3
f 159/2/3 157/2/3 156/2/3
f 160/2/3 157/2/3 159/2/3
f 163/2/3 162/2/3 161/2/3
f 164/2/3 162/2/3 163/2/3
f 167/2/3 166/2/3 165/2/3
f 168/2/3 166/2/3 167/2/3
f 169/3/4 170/3/4 172/3/4
f 172/3/4 170/3/4 173/3/4
f 171/1/4 172/1/4 174/1/4
f 172/1/4 173/1/4 174/1/4
f 174/1/4 173/1/4 175/1/4
f 175/1/4 173/1/4 176/1/4
f 175/3/4 176/3/4 177/3/4
f 177/3/4 176/3/4 178/3/4
f 179/2/4 180/2/4 181/2/4
f 179/2/4 181/2/4 183/2/4
f 181/2/4 182/2/4 183/2/4
f 183/2/4 182/2/4 184/2/4
f 184/2/4 182/2/4 187/2/4
f 187/2/4 182/2/4 188/2/4
f 185/2/4 186/2/4 189/2/4
f 189/2/4 186/2/4 190/2/4
f 191/2/4 192/2/4 194/2/4
f 194/2/4 192/2/4 195/2/4
f 193/2/4 194/2/4 195/2/4
f 195/2/4 192/2/4 196/2/4
f 193/2/4 195/2/4 197/2/4
f 197/2/4 195/2/4 198/2/4
f 199/2/4 200/2/4 201/2/4
f 201/2/4 200/2/4 202/2/4
f 205/1/5 204/1/5 203/1/5
f 206/1/5 204/1/5 205/1/5
f 209/2/5 208/2/5 207/2/5
f 210/2/5 208/2/5 209/2/5
f 215/3/5 212/3/5 211/3/5
f 216/3/5 212/3/5 215/3/5
f 217/3/5 214/3/5 213/3/5
f 218/3/5 214/3/5 217/3/5
f 222/2/5 220/2/5 219/2/5
f 223/2/5 220/2/5 222/2/5
f 225/2/5 222/2/5 221/2/5
f 226/2/5 224/2/5 223/2/5
f 227/2/5 225/2/5 221/2/5
f 227/2/5 226/2/5 225/2/5
f 228/2/5 224/2/5 226/2/5
f 228/2/5 226/2/5 227/2/5
f 234/2/5 230/2/5 229/2/5
f 234/2/5 232/2/5 231/2/5
f 234/2/5 231/2/5 230/2/5
f 235/2/5 232/2/5 234/2/5
f 236/2/5 232/2/5 235/2/5
f 237/2/5 232/2/5 236/2/5
f 239/2/5 234/2/5 233/2/5
f 239/2/5 235/2/5 234/2/5
f 240/2/5 235/2/5 239/2/5
f 241/2/5 238/2/5 237/2/5
f 241/2/5 237/2/5 236/2/5
f 242/2/5 238/2/5 241/2/5
f 244/2/5 239/2/5 233/2/5
f 245/2/5 238/2/5 242/2/5
f 247/2/5 244/2/5 243/2/5
f 248/2/5 239/2/5 244/2/5
f 248/2/5 244/2/5 247/2/5
f 249/2/5 246/2/5 245/2/5
f 249/2/5 245/2/5 242/2/5
f 250/2/5 246/2/5 249/2/5
f 251/2/6 252/2/6 253/2/6
f 253/2/6 252/2/6 254/2/6
f 251/2/6 253/2/6 256/2/6
f 254/2/6 252/2/6 257/2/6
f 255/2/6 256/2/6 260/2/6
f 256/2/6 253/2/6 261/2/6
f 260/2/6 256/2/6 261/2/6
f 257/2/6 258/2/6 262/2/6
f 254/2/6 257/2/6 262/2/6
f 262/2/6 258/2/6 263/2/6
f 259/2/6 260/2/6 265/2/6
f 265/2/6 260/2/6 266/2/6
f 263/2/6 264/2/6 267/2/6
f 267/2/6 264/2/6 268/2/6
f 269/2/6 270/2/6 271/2/6
f 271/2/6 270/2/6 272/2/6
f 271/2/6 272/2/6 275/2/6
f 275/2/6 272/2/6 276/2/6
f 273/2/6 274/2/6 279/2/6
f 279/2/6 274/2/6 280/2/6
f 275/2/6 276/2/6 282/2/6
f 282/2/6 276/2/6 283/2/6
f 277/2/6 278/2/6 285/2/6
f 285/2/6 278/2/6 286/2/6
f 283/2/6 284/2/6 287/2/6
f 281/2/6 282/2/6 287/2/6
f 282/2/6 283/2/6 287/2/6
f 287/2/6 284/2/6 288/2/6
f 289/3/6 290/3/6 295/3/6
f 290/4/6 291/4/6 296/4/6
f 295/3/6 290/3/6 296/3/6
f 296/4/6 291/4/6 297/4/6
f 292/3/6 293/3/6 298/3/6
f 293/4/6 294/4/6 299/4/6
f 298/3/6 293/3/6 299/3/6
f 299/4/6 294/4/6 300/4/6
f 296/2/6 297/2/6 301/2/6
f 295/2/6 296/2/6 301/2/6
f 301/2/6 297/2/6 302/2/6
f 299/2/6 300/2/6 303/2/6
f 298/2/6 299/2/6 303/2/6
f 303/2/6 300/2/6 304/2/6
